<?xml version="1.0" encoding="UTF-8"?>
<svg xmlns="http://www.w3.org/2000/svg" xmlns:xlink="http://www.w3.org/1999/xlink" width="2500px" height="2500px" viewBox="0 0 2500 2500" version="1.1">
<g id="surface1">
<path style=" stroke:none;fill-rule:nonzero;fill:rgb(34.901961%,58.823529%,21.176471%);fill-opacity:1;" d="M 1150.527344 325.027344 L 1204.703125 426.789062 C 1216.886719 445.566406 1230.082031 462.1875 1245.625 477.667969 C 1291.195312 522.667969 1333.671875 570.699219 1372.761719 621.425781 C 1464.5625 741.964844 1526.480469 875.828125 1570.699219 1020.601562 C 1597.21875 1109.039062 1611.621094 1199.761719 1612.699219 1291.5 C 1617.140625 1565.757812 1523.121094 1801.253906 1333.554688 1996.972656 C 1302.71875 2028.007812 1269.410156 2056.484375 1233.953125 2082.109375 C 1215.171875 2082.109375 1206.289062 2067.710938 1198.550781 2054.449219 C 1184.457031 2029.863281 1175.074219 2002.859375 1170.890625 1974.832031 C 1164.230469 1941.652344 1159.851562 1908.472656 1162.007812 1874.210938 L 1162.007812 1858.730469 C 1160.484375 1855.433594 1143.925781 332.832031 1150.527344 325.027344 Z M 1150.527344 325.027344 "/>
<path style=" stroke:none;fill-rule:nonzero;fill:rgb(42.352941%,67.45098%,28.235294%);fill-opacity:1;" d="M 1150.527344 321.664062 C 1148.304688 317.222656 1146.085938 320.585938 1143.863281 322.742188 C 1144.941406 344.949219 1137.203125 364.742188 1125.085938 383.648438 C 1111.761719 402.425781 1094.125 416.828125 1076.425781 432.308594 C 978.089844 517.445312 900.691406 620.285156 838.710938 735.304688 C 756.234375 890.101562 713.730469 1056.003906 701.675781 1230.660156 C 696.15625 1293.65625 721.59375 1515.957031 741.453125 1580.097656 C 795.632812 1750.375 892.953125 1893.054688 1019.011719 2016.894531 C 1049.96875 2046.710938 1083.085938 2074.371094 1117.34375 2100.953125 C 1127.304688 2100.953125 1128.382812 2092.070312 1130.667969 2085.472656 C 1135.035156 2071.355469 1138.363281 2056.9375 1140.628906 2042.332031 L 1162.832031 1876.496094 Z M 1150.527344 321.664062 "/>
<path style=" stroke:none;fill-rule:nonzero;fill:rgb(76.078431%,74.901961%,74.901961%);fill-opacity:1;" d="M 1204.703125 2149.484375 C 1206.925781 2124.109375 1219.105469 2103.046875 1232.367188 2082.046875 C 1219.042969 2076.527344 1209.144531 2065.550781 1201.40625 2053.308594 C 1194.730469 2041.714844 1189.207031 2029.496094 1184.910156 2016.828125 C 1169.429688 1970.390625 1166.132812 1921.667969 1161.691406 1874.210938 L 1161.691406 1845.472656 C 1156.171875 1849.914062 1155.03125 1887.472656 1155.03125 1893.054688 C 1151.800781 1943.210938 1145.144531 1993.085938 1135.109375 2042.332031 C 1131.808594 2062.253906 1129.589844 2082.109375 1117.34375 2099.8125 C 1117.34375 2102.03125 1117.34375 2104.253906 1118.425781 2107.550781 C 1138.34375 2166.171875 1143.800781 2225.871094 1147.164062 2286.710938 L 1147.164062 2308.914062 C 1147.164062 2335.433594 1146.085938 2329.851562 1168.097656 2338.734375 C 1176.980469 2342.03125 1186.878906 2343.175781 1195.757812 2349.773438 C 1202.421875 2349.773438 1203.5 2344.253906 1203.5 2339.8125 L 1200.199219 2303.332031 L 1200.199219 2201.570312 C 1199.121094 2183.808594 1202.421875 2166.171875 1204.640625 2149.550781 Z M 1204.703125 2149.484375 "/>
</g>
</svg>
